<?xml version="1.0" encoding="UTF-8"?>
<svg id="katman_1" data-name="katman 1" xmlns="http://www.w3.org/2000/svg" viewBox="0 0 1139.57 216.14">
  <defs>
    <style>
      .cls-1 {
        fill: #cb1417;
      }

      .cls-2 {
        fill: #36b9c0;
      }
    </style>
  </defs>
  <path class="cls-2" d="M529.32,35.16c18.96.74,39.22-1.38,58.04-.14,27.47,1.8,41.32,28.43,30.06,52.73-1.77,3.82-8.53,9.83-8.53,12.24,0,2.95,5.95,6.74,7.96,9.49,5.22,7.13,6.73,17.22,6.18,25.87-3.17,49.85-58.87,31.59-92.18,35.12l-3.82-2.27-.89-3.53V40.83c-.01-2.4,1.08-4.5,3.18-5.67ZM554,87.39c.82.7,1.86.66,2.86.74,6.66.56,20.04.65,26.62,0,15.21-1.51,15.63-27.84-.09-29.81-5.68-.71-20.21-.69-25.98-.09-1.78.18-3.49.52-4.26,2.38-.72,1.75-.8,21.14-.44,23.93.15,1.14.61,1.97,1.29,2.85ZM555.89,110.89c-2.06.61-2.91,1.96-3.18,4.01-.68,5.27-.7,22.97,0,28.21.37,2.77,2.02,3.81,4.7,4.15,5.72.72,27.36.54,32.05-1.74,9.81-4.76,9.24-26.51.62-32.54-6.74-4.72-25.65-1.12-34.2-2.1Z"/>
  <path class="cls-2" d="M641.15,35.16c18.94.76,39.26-1.42,58.03-.15,28.19,1.91,42.27,31.06,28.77,54.75-1.87,3.28-7.79,7.74-7.48,10.72.25,2.42,5.35,5.57,7.18,7.8,11.23,13.68,8.86,42.3-4.68,53.89-17.38,14.88-58.47,5.65-80.3,8.29l-4.07-2.57-.65-127.64,1.21-3.76,1.98-1.34ZM667.72,58.38c-1.05.24-1.91,1.04-2.65,1.78-.46.48-.45,1.06-.54,1.67-.58,3.86-.5,18.72.02,22.7.38,2.94,1.44,3.33,4.14,3.61,5.79.61,22.04.7,27.66-.08,13.2-1.83,14.7-28.08-1.62-29.79-4.39-.46-23.31-.73-27,.11ZM665.28,112.04l-.47,32.48c.83,2.25,2.83,2.56,4.99,2.76,5.93.55,25.34.62,30.35-1.24,11.78-4.37,10.94-31.24-2.07-34.74-4.02-1.08-25.29-1.15-29.94-.55-1.14.15-1.98.61-2.86,1.29Z"/>
  <path class="cls-2" d="M818.83,36.32l23.67,55.69c1.89,1.13,4.79.66,6.09-1.18,7.74-15.96,13.98-33.12,21.81-48.98,1.45-2.94,2.2-6.35,5.9-6.82,3.7-.47,15.15-.47,18.84,0s4.98,3.6,3.71,7.05l-40.83,85.26c-1.48,12.07,1.08,26.03-.26,37.88-.14,1.2-.38,2.33-1.1,3.33-.68.79-1.58,1.57-2.62,1.81-2.28.52-16.18.5-18.67.09-.73-.12-1.37-.35-1.95-.82l-1.82-2.06-.66-39.69-38.39-87.16c-.63-2.66.73-5.17,3.51-5.63,3.35-.56,16.4-.5,19.92-.06,1.13.14,1.99.6,2.85,1.3Z"/>
  <g>
    <path class="cls-2" d="M752.97,35.16c2.31-.53,16.69-.51,19.22-.09,1.49.25,3.3,1.44,3.62,3.02l.04,127.69c.09,2.36-1.28,4.24-3.66,4.64-2.91.48-15.25.46-18.2,0-1.85-.29-4.01-1.55-4.15-3.59l-.06-127.12c-.13-2.05,1.14-4.08,3.19-4.55Z"/>
    <path class="cls-2" d="M754.08.34c1.46-.43,14.59-.43,16.52-.14,5.02.73,3.91,13.44,3.59,17.46-.29,3.76-.59,5.31-4.73,5.78-17.24,1.93-20-5.45-17.36-21.21.52-.68,1.13-1.64,1.98-1.89Z"/>
  </g>
  <path class="cls-2" d="M357.8,35.54c6.2-.63,78.32-1.06,85.95.03,2.44,1.31,2.76,3.22,2.82,6.29.14,3.26.13,7.76.03,10.49.14,11.37-17.49,5.8-23.71,6.9-1.79.22-3.63,2.09-4.5,3.38-.14.93-.03,2.82-.07,6.29-.43,23.12.73,91.63-.58,97.48-1.09,1.33-2.29,3.72-4.21,3.96-2.94.35-10.46.38-14.68.25-3.16.28-6.41-1.5-7.07-4.51-.11-5.7-.27-78.8-.39-101.6-.13-1.68.29-2.08-.28-3.3-.38-.66-1.57-1.55-2.6-1.66-5.09-.9-19.66.17-26.14-.06-4.29.22-7.58-2.9-7.42-7.24.17-4.67-1.15-13.54,2.76-16.65l.08-.06Z"/>
  <g>
    <path class="cls-2" d="M476.73,35.16c2.31-.53,16.69-.51,19.22-.09,1.49.25,3.3,1.44,3.62,3.02l.04,127.69c.09,2.36-1.28,4.24-3.66,4.64-2.91.48-15.25.46-18.2,0-1.85-.29-4.01-1.55-4.15-3.59l-.06-127.12c-.13-2.05,1.14-4.08,3.19-4.55Z"/>
    <path class="cls-2" d="M479.51,196.57c2.52-.47,14.97-.48,16.73.72.94.64,1.59,2.09,1.52,3.21s-5.74,10.91-6.8,12.47c-6.97,10.28-11-7.41-14.93-12.11l.84-3.08c.61-.69,1.76-1.06,2.65-1.22Z"/>
  </g>
  <g>
    <path class="cls-2" d="M936.55,61.76c-.5.5-1.3,1.99-1.47,2.67-.84,3.3-.86,18.57-.39,22.3.31,2.46,1.62,3.96,4.15,4.15,13.97.88,28.8.01,42.66,1.07,3,.23,7.06.66,7.89,4.28.5,2.17.37,10.12.14,12.62-.31,3.33-1.22,5.21-4.78,5.73-14.56,1.14-30.42-.2-44.81,1.14-1.86.17-4,.44-4.82,2.37-.75,1.78-.74,18.38-.42,21.14.55,4.69,2.95,6.42,7.48,6.9l52.33.26,2.42,2.01c1.16,1.97,1.31,13.73.76,16.14-.81,3.52-5.01,3.93-7.92,4.25-5.85.65-12.8.8-18.79,1.14-11.93.68-34.4,2.71-45.13-.3-11.82-3.32-16.9-12.53-17.74-24.29-2.06-28.78.94-60.92.82-89.87,4.44-22,24.14-20.82,42.12-20.44,11.95.25,30.66.33,42,2.28,2.36.41,3.94,1.35,4.52,3.78s.57,12.63,0,15-2.63,3.54-5.01,3.84c-15.5,1.96-35.1-1.58-50.96-.03-1.7.17-3.81.63-5.05,1.87Z"/>
    <g>
      <g>
        <path class="cls-2" d="M1138.25,169.18c-.74.69-2.38,1.18-3.41,1.3-3.36.39-14.52.48-17.69-.05-1.16-.19-2.08-.71-2.79-1.63l-1.33-4.2-.08-123.21c.13-2.87.96-5.77,4.2-6.31,2.85-.47,15.9-.47,18.76,0,1.93.32,3.29,1.67,3.6,3.59l.07,127.13c.04,1.14-.5,2.61-1.32,3.38Z"/>
        <path class="cls-2" d="M1117.78.34c1.57-.46,13.86-.4,15.95-.13,5.65.75,4.58,12.96,4.16,17.44-.3,3.16-1.24,5.35-4.71,5.79-6.4.82-16.66.59-17.97-7.51-.49-3.06-.94-14.57,2.57-15.6Z"/>
      </g>
      <path class="cls-2" d="M1017.03,35.16c2.33-.53,16.68-.51,19.22-.08,1.76.29,3.03,1.42,3.51,3.13l.1,98.84c.46,5.39,1.63,8.42,7.49,9.1,14.05,1.63,31.25-1.49,45.42-.03,2,.21,3.6.66,4.55,2.64,1.16,2.43,1.13,17.19-.19,19.45l-4.36,2.28c-22.85-3.97-76.29,12.74-78.94-22.39l.54-111.16c.74-.74,1.6-1.54,2.65-1.78Z"/>
    </g>
  </g>
  <g>
    <path class="cls-1" d="M212.6,35.49c10.22-1.44,22.6-1.11,33.35-.81,24.79-.04,37.63,11.81,36.32,36.65-.94,24.84,3.45,50.87-.58,75.25-1.77,8.9-7.88,17.13-16.14,20.66-2.79,1.25-5.73,1.96-8.76,2.42-10.47,1.48-24.81,1.59-36.31,1.09-13.34-.36-27.04-5.14-32.21-18.5-2.12-5.11-2.97-10.94-3.36-16.44-1.14-19.05-.99-42.16-.18-61.18.36-19.25,6.76-35.71,27.69-39.11l.18-.03ZM252.65,63.11c-4.67-4.9-13.2-4.05-19.84-4.2-8.91-.06-17.49.83-20.18,9.52-.92,2.76-1.21,5.83-1.37,8.77-.55,18.12.88,37.48.87,55.83.44,7.49,4.83,12.39,12.63,12.94,4.88.51,11.05.58,16.11.35,3.24-.2,6.44-.59,9.26-2.13,6.16-3.37,6.52-11.24,6.81-18.03.48-15.98-.86-32.76-.57-48.86-.05-4.82-.18-10.33-3.61-14.06l-.12-.13Z"/>
    <path class="cls-1" d="M97.56,34.66c9.74-.99,28.25-1,38.05-.18,20.63,1.73,26.83,21.68,29.5,39.08,3.68,23.93,5.69,81.77-20.37,94.44-11.34,5.51-42.55,3.15-55.57,1.28-3.25-.47-11.84-1.07-12.84-4.31-.53-1.72-.55-12.09-.22-14.09.24-1.44,1.05-2.5,2.23-3.31l49.12-1.25c7.94-2.47,10.92-10.81,12.12-18.3.57-3.58,2.43-12.47-2.04-13.71-19.71,1.77-56.34,10.39-64.2-14.9-2.75-8.85-2.77-38.59.09-47.37,3.55-10.86,13.15-16.26,24.12-17.38ZM104.18,58.95c-2.81.48-4.73,2.19-5.66,4.85-1.44,4.09-1.37,21.14.24,25.17,1.32,3.29,4.08,4.36,7.48,4.69,6.62.66,24.04.8,30.48-.01,1.07-.14,1.97-.32,2.78-1.09.85-.82,1.34-2.45,1.36-3.61.19-9.67-2.04-28.38-14.17-30.08-4.06-.57-18.56-.59-22.51.08Z"/>
    <path class="cls-1" d="M25,63.39c-2.97-2.96-13.78,1.94-17.97,2.46-1.49.18-3.11.46-4.55-.15-1.25-1-2.01-1.64-2.26-3.27-.4-2.64-.42-11.24,1.4-13.03l24.49-14.24c6.79.55,16.06-1.16,22.55-.08,1.76.29,3.03,1.42,3.51,3.13l.15,127.59c.13,2.05-1.14,4.08-3.19,4.55-2.47.56-15.89.48-18.65.07-1.99-.3-3.56-1.04-4.08-3.11l-.09-99.95c-.02-1.12-.53-3.2-1.3-3.96Z"/>
  </g>
</svg>